HIERARCHY
ROOT Hips
{
	OFFSET 0.000000 0.000000 0.000000
	CHANNELS 6 Xposition Yposition Zposition Zrotation Yrotation Xrotation 
	JOINT LHipJoint
	{
		OFFSET 0.000000 0.000000 0.000000
		CHANNELS 3 Zrotation Yrotation Xrotation
		JOINT LeftUpLeg
		{
			OFFSET 1.363060 -1.794630 0.839290
			CHANNELS 3 Zrotation Yrotation Xrotation
			JOINT LeftLeg
			{
				OFFSET 2.448110 -6.726130 0.000000
				CHANNELS 3 Zrotation Yrotation Xrotation
				JOINT LeftFoot
				{
					OFFSET 2.562200 -7.039590 0.000000
					CHANNELS 3 Zrotation Yrotation Xrotation
					JOINT LeftToeBase
					{
						OFFSET 0.157640 -0.433110 2.322550
						CHANNELS 3 Zrotation Yrotation Xrotation
						End Site
						{
							OFFSET 0.000000 0.000000 0.000000
						}
					}
				}
			}
		}
	}
	JOINT RHipJoint
	{
		OFFSET 0.000000 0.000000 0.000000
		CHANNELS 3 Zrotation Yrotation Xrotation
		JOINT RightUpLeg
		{
			OFFSET -1.305520 -1.794630 0.839290
			CHANNELS 3 Zrotation Yrotation Xrotation
			JOINT RightLeg
			{
				OFFSET -2.542530 -6.985550 0.000000
				CHANNELS 3 Zrotation Yrotation Xrotation
				JOINT RightFoot
				{
					OFFSET -2.568260 -7.056230 0.000000
					CHANNELS 3 Zrotation Yrotation Xrotation
					JOINT RightToeBase
					{
						OFFSET -0.164730 -0.452590 2.363150
						CHANNELS 3 Zrotation Yrotation Xrotation
						End Site
						{
							OFFSET 0.000000 0.000000 0.000000
						}
					}
				}
			}
		}
	}
	JOINT LowerBack
	{
		OFFSET 0.000000 0.000000 0.000000
		CHANNELS 3 Zrotation Yrotation Xrotation
		JOINT Spine
		{
			OFFSET 0.028270 2.035590 -0.193380
			CHANNELS 3 Zrotation Yrotation Xrotation
			JOINT Spine1
			{
				OFFSET 0.056720 2.048850 -0.042750
				CHANNELS 3 Zrotation Yrotation Xrotation
				JOINT Neck
				{
					OFFSET 0.000000 0.000000 0.000000
					CHANNELS 3 Zrotation Yrotation Xrotation
					JOINT Neck1
					{
						OFFSET -0.054170 1.746240 0.172020
						CHANNELS 3 Zrotation Yrotation Xrotation
						JOINT Head
						{
							OFFSET 0.104070 1.761360 -0.123970
							CHANNELS 3 Zrotation Yrotation Xrotation
							End Site
							{
								OFFSET 0.000000 0.000000 0.000000
							}
						}
					}
				}
				JOINT LeftShoulder
				{
					OFFSET 0.000000 0.000000 0.000000
					CHANNELS 3 Zrotation Yrotation Xrotation
					JOINT LeftArm
					{
						OFFSET 3.362410 1.200890 -0.311210
						CHANNELS 3 Zrotation Yrotation Xrotation
						JOINT LeftForeArm
						{
							OFFSET 4.983000 -0.000000 -0.000000
							CHANNELS 3 Zrotation Yrotation Xrotation
							JOINT LeftHand
							{
								OFFSET 3.483560 -0.000000 -0.000000
								CHANNELS 3 Zrotation Yrotation Xrotation
								JOINT LeftFingerBase
								{
									OFFSET 0.000000 0.000000 0.000000
									CHANNELS 3 Zrotation Yrotation Xrotation
									JOINT LeftHandIndex1
									{
										OFFSET 0.715260 -0.000000 -0.000000
										CHANNELS 3 Zrotation Yrotation Xrotation
										End Site
										{
											OFFSET 0.000000 0.000000 0.000000
										}
									}
								}
								JOINT LThumb
								{
									OFFSET 0.000000 0.000000 0.000000
									CHANNELS 3 Zrotation Yrotation Xrotation
									End Site
									{
										OFFSET 0.000000 0.000000 0.000000
									}
								}
							}
						}
					}
				}
				JOINT RightShoulder
				{
					OFFSET 0.000000 0.000000 0.000000
					CHANNELS 3 Zrotation Yrotation Xrotation
					JOINT RightArm
					{
						OFFSET -3.136600 1.374050 -0.404650
						CHANNELS 3 Zrotation Yrotation Xrotation
						JOINT RightForeArm
						{
							OFFSET -5.241900 -0.000000 -0.000000
							CHANNELS 3 Zrotation Yrotation Xrotation
							JOINT RightHand
							{
								OFFSET -3.444170 -0.000000 -0.000000
								CHANNELS 3 Zrotation Yrotation Xrotation
								JOINT RightFingerBase
								{
									OFFSET 0.000000 0.000000 0.000000
									CHANNELS 3 Zrotation Yrotation Xrotation
									JOINT RightHandIndex1
									{
										OFFSET -0.622530 -0.000000 -0.000000
										CHANNELS 3 Zrotation Yrotation Xrotation
										End Site
										{
											OFFSET 0.000000 0.000000 0.000000
										}
									}
								}
								JOINT RThumb
								{
									OFFSET 0.000000 0.000000 0.000000
									CHANNELS 3 Zrotation Yrotation Xrotation
									End Site
									{
										OFFSET 0.000000 0.000000 0.000000
									}
								}
							}
						}
					}
				}
			}
		}
	}
}
MOTION
Frames: 11
Frame Time: 0.008333
6.444245 17.476110 -8.758029 -79.128954 -86.414488 83.014361 -2.966210 -1.593132 -0.170307 -10.899130 -2.792789 -14.197636 1.892686 11.602411 32.172637 -0.677651 5.269023 -7.496503 0.000900 0.194800 0.535200 3.056017 2.011344 -0.898062 21.145781 8.772281 -14.447318 -2.583674 -12.442499 34.727255 0.273187 -4.032886 -6.597260 -0.437900 -4.246200 11.770400 2.717383 1.685366 2.791033 2.048468 2.408074 -3.834725 2.113986 1.051914 -1.096995 -5.617378 5.116832 -15.182929 3.033800 7.657986 11.495796 2.861100 3.078500 9.184100 -0.694112 -2.568812 0.291915 -77.137140 6.162725 69.614274 92.968939 -59.060472 -55.305888 0.931536 1.463973 -3.012317 28.100784 8.944559 3.771600 -7.125000 0.000000 0.000000 0.264100 38.278400 -0.043700 2.285239 2.018871 -0.465873 66.906135 -3.405476 71.841740 -103.426966 57.271913 -65.477668 -1.789528 -0.675901 -7.492025 -32.488864 20.518747 -12.253700 7.125000 0.000000 0.000000 -1.182700 -5.363300 -1.067200 
6.445157 17.475907 -8.757522 -79.666984 -86.422399 83.554130 -2.968987 -1.594930 -0.171829 -10.898332 -2.795364 -14.194994 1.894173 11.604951 32.180020 -0.681502 5.286428 -7.513862 0.001100 0.212500 0.583800 3.052591 2.010618 -0.900533 21.147542 8.779858 -14.450158 -2.583291 -12.442234 34.725549 0.276048 -4.039893 -6.578547 -0.433100 -4.223400 11.705900 2.679816 1.676094 2.803365 2.062391 2.394970 -3.825515 2.177808 1.045145 -1.092189 -5.659521 5.123178 -15.129052 3.057121 7.677568 11.340252 2.874900 3.099800 9.086300 -0.693404 -2.564052 0.296336 -77.202214 6.155945 69.598021 93.023001 -59.054237 -55.363220 0.929206 1.480305 -3.029350 28.331041 9.106472 3.881600 -7.125000 0.000000 0.000000 0.456500 38.454200 -0.073600 2.286479 2.022969 -0.458373 66.876693 -3.433492 71.831539 -103.507098 57.256055 -65.565083 -1.788303 -0.674733 -7.532929 -32.529116 20.533439 -12.280000 7.125000 0.000000 0.000000 -1.206500 -5.339900 -1.089200 
6.446070 17.475806 -8.757218 -80.003157 -86.410277 83.902370 -2.968292 -1.597160 -0.171662 -10.881244 -2.724663 -14.239222 1.895830 11.604787 32.181727 -0.672110 5.246968 -7.491568 0.000700 0.172000 0.472500 3.051094 2.010857 -0.901531 21.160692 8.779657 -14.467581 -2.582174 -12.441306 34.722236 0.265605 -4.007510 -6.567457 -0.433300 -4.224200 11.708300 2.694919 1.668571 2.820839 2.065386 2.386624 -3.826792 2.179321 1.040312 -1.110666 -5.676347 5.117885 -15.091923 3.087500 7.674577 11.224972 2.889900 3.109600 9.016400 -0.700574 -2.561216 0.297960 -77.146810 6.185321 69.686807 93.214044 -59.024948 -55.525883 0.928956 1.471508 -3.107395 28.228494 9.018786 3.826000 -7.125000 0.000000 0.000000 0.370700 38.362000 -0.060600 2.284928 2.028192 -0.454375 66.895533 -3.498459 71.819445 -103.564019 57.246696 -65.620403 -1.787645 -0.674718 -7.558778 -32.536858 20.549818 -12.292300 7.125000 0.000000 0.000000 -1.209200 -5.320400 -1.092100 
6.446779 17.476617 -8.756204 -80.374314 -86.415237 84.286336 -2.970433 -1.597920 -0.172193 -10.886298 -2.773113 -14.231783 1.894751 11.604281 32.179643 -0.686454 5.303844 -7.503832 0.000900 0.196600 0.540200 3.051606 2.010034 -0.901036 21.150560 8.797438 -14.479519 -2.580904 -12.439799 34.717369 0.262388 -3.995792 -6.547457 -0.434900 -4.231700 11.729500 2.699068 1.672434 2.837544 2.062723 2.393467 -3.832211 2.170951 1.043216 -1.134953 -5.683515 5.112475 -15.083108 3.105661 7.669739 11.163508 2.899400 3.113500 8.982700 -0.707143 -2.561047 0.298220 -77.069261 6.180002 69.748393 93.334638 -59.003391 -55.644682 0.920058 1.479360 -3.237365 28.337009 9.174338 3.920400 -7.125000 0.000000 0.000000 0.461300 38.536500 -0.073400 2.284040 2.032164 -0.453280 66.911983 -3.573304 71.802853 -103.619444 57.237623 -65.674076 -1.785649 -0.676164 -7.622991 -32.537630 20.552570 -12.294300 7.125000 0.000000 0.000000 -1.210200 -5.317700 -1.093100 
6.447590 17.477023 -8.755595 -80.757963 -86.413656 84.683951 -2.972032 -1.599244 -0.172152 -10.881447 -2.775445 -14.244475 1.894491 11.603491 32.177565 -0.692539 5.327413 -7.504564 0.000900 0.190900 0.524600 3.050952 2.009597 -0.901041 21.150913 8.806517 -14.495540 -2.579395 -12.438028 34.711750 0.257638 -3.979871 -6.527924 -0.435200 -4.233400 11.734400 2.700159 1.670185 2.853353 2.065288 2.391505 -3.837268 2.178017 1.041783 -1.158884 -5.692317 5.109676 -15.070945 3.120521 7.668919 11.094790 2.906900 3.119400 8.944500 -0.710548 -2.560909 0.298608 -77.047045 6.198745 69.794426 93.433762 -58.988009 -55.732847 0.915174 1.481111 -3.317777 28.351891 9.221794 3.947300 -7.125000 0.000000 0.000000 0.474200 38.590400 -0.074900 2.283709 2.036052 -0.451777 66.922935 -3.642255 71.802990 -103.670747 57.228554 -65.728275 -1.785120 -0.678161 -7.694821 -32.621173 20.584014 -12.351800 7.125000 0.000000 0.000000 -1.257000 -5.261600 -1.136700 
6.448300 17.477631 -8.754987 -81.150256 -86.410538 85.093180 -2.973855 -1.600438 -0.171563 -10.875004 -2.776486 -14.258643 1.893264 11.601071 32.170577 -0.700189 5.356327 -7.502227 0.000800 0.178000 0.489200 3.050518 2.009127 -0.900778 21.152144 8.817826 -14.513859 -2.577641 -12.435980 34.705087 0.252704 -3.962939 -6.508451 -0.436300 -4.238500 11.748500 2.703534 1.669195 2.866961 2.067537 2.391037 -3.844971 2.181745 1.041219 -1.186510 -5.691542 5.107238 -15.070313 3.126352 7.666436 11.051049 2.908800 3.122200 8.923400 -0.711669 -2.562274 0.298066 -77.050238 6.226411 69.833580 93.495513 -58.979603 -55.782819 0.909753 1.481788 -3.384592 28.331385 9.255184 3.961800 -7.125000 0.000000 0.000000 0.457800 38.627100 -0.071900 2.283424 2.039220 -0.451746 66.938007 -3.714450 71.811963 -103.711226 57.221572 -65.772185 -1.784742 -0.681358 -7.780852 -32.738313 20.619531 -12.428400 7.125000 0.000000 0.000000 -1.323500 -5.191200 -1.198600 
6.448909 17.478341 -8.754379 -81.560515 -86.408553 85.520853 -2.976002 -1.601616 -0.170842 -10.869943 -2.781660 -14.271380 1.892058 11.598876 32.164025 -0.709536 5.392387 -7.503334 0.000700 0.166900 0.458500 3.050111 2.008366 -0.900336 21.152195 8.834107 -14.530173 -2.575793 -12.433678 34.697739 0.248537 -3.948743 -6.490557 -0.437700 -4.245100 11.767200 2.705152 1.669268 2.877694 2.070328 2.391698 -3.853714 2.187727 1.041300 -1.213974 -5.687810 5.104414 -15.079524 3.126551 7.662704 11.030031 2.907900 3.122200 8.916800 -0.710204 -2.564558 0.296827 -77.088193 6.259277 69.857749 93.509140 -58.980111 -55.784493 0.903720 1.481776 -3.428901 28.275700 9.278125 3.965400 -7.125000 0.000000 0.000000 0.412500 38.650200 -0.064500 2.283296 2.041681 -0.452735 66.950507 -3.785398 71.825793 -103.740037 57.217024 -65.804791 -1.784123 -0.685231 -7.873174 -32.864944 20.647881 -12.506500 7.125000 0.000000 0.000000 -1.396900 -5.126000 -1.266900 
6.449415 17.478949 -8.753669 -81.984810 -86.405581 85.962684 -2.978140 -1.602775 -0.169832 -10.863980 -2.781085 -14.285423 1.890670 11.596252 32.156470 -0.718580 5.426918 -7.504155 0.000500 0.150800 0.414300 3.049717 2.007409 -0.899839 21.153659 8.853854 -14.544233 -2.573860 -12.431201 34.689756 0.245151 -3.937226 -6.475748 -0.439400 -4.253500 11.790900 2.708513 1.670952 2.885240 2.073158 2.394187 -3.863017 2.193169 1.042201 -1.240066 -5.682457 5.099335 -15.095834 3.124021 7.655538 11.028129 2.905600 3.118900 8.922200 -0.707001 -2.567356 0.294978 -77.149667 6.294590 69.875475 93.488371 -58.986933 -55.751066 0.897389 1.480956 -3.450104 28.190326 9.293095 3.960400 -7.125000 0.000000 0.000000 0.342800 38.662800 -0.053500 2.283020 2.043593 -0.454511 66.962919 -3.853391 71.840000 -103.756196 57.215250 -65.824330 -1.783256 -0.689509 -7.963624 -32.987468 20.666401 -12.577900 7.125000 0.000000 0.000000 -1.469200 -5.072000 -1.334000 
6.449821 17.479456 -8.752959 -82.422091 -86.404716 86.415762 -2.980271 -1.603974 -0.168623 -10.860399 -2.774386 -14.299070 1.889180 11.593508 32.148354 -0.725882 5.455166 -7.504688 0.000500 0.137400 0.377600 3.049284 2.006203 -0.899317 21.152893 8.875982 -14.554758 -2.571921 -12.428832 34.681872 0.241673 -3.925437 -6.463602 -0.441500 -4.263300 11.818700 2.710765 1.673310 2.889813 2.075893 2.397534 -3.871965 2.199897 1.043574 -1.262967 -5.682277 5.092525 -15.115760 3.122879 7.647351 11.041837 2.905200 3.113700 8.936000 -0.702528 -2.570115 0.292797 -77.230464 6.328076 69.880267 93.431335 -58.999875 -55.684244 0.891028 1.480759 -3.450399 28.103217 9.313673 3.957500 -7.125000 0.000000 0.000000 0.271700 38.680500 -0.042300 2.282371 2.045101 -0.456733 66.974161 -3.915109 71.853183 -103.760800 57.216068 -65.830965 -1.782024 -0.693649 -8.045066 -33.081955 20.670827 -12.628100 7.125000 0.000000 0.000000 -1.526600 -5.040700 -1.387000 
6.450125 17.479963 -8.752351 -82.866649 -86.404997 86.875996 -2.982198 -1.605405 -0.167385 -10.856441 -2.757162 -14.316546 1.887949 11.590746 32.140736 -0.728956 5.466473 -7.503035 0.000400 0.134200 0.368800 3.048735 2.004859 -0.898992 21.151428 8.901189 -14.563034 -2.569889 -12.426276 34.673770 0.238913 -3.915999 -6.453768 -0.443400 -4.272400 11.844400 2.711559 1.675980 2.890115 2.078927 2.400791 -3.879996 2.208969 1.044852 -1.281022 -5.688185 5.084817 -15.138056 3.124982 7.639364 11.066340 2.907900 3.107600 8.955100 -0.698371 -2.572474 0.290518 -77.303305 6.351954 69.882701 93.369032 -59.013116 -55.614024 0.884359 1.480877 -3.445599 28.020079 9.345811 3.960800 -7.125000 0.000000 0.000000 0.203800 38.710700 -0.031600 2.281885 2.046250 -0.459090 66.981618 -3.967078 71.860559 -103.752815 57.219753 -65.823817 -1.780539 -0.697085 -8.110522 -33.133694 20.661276 -12.649700 7.125000 0.000000 0.000000 -1.560100 -5.036400 -1.417600 
6.450429 17.480267 -8.751743 -83.320957 -86.407450 87.346118 -2.983921 -1.607096 -0.166036 -10.853354 -2.728359 -14.338440 1.886892 11.587973 32.133583 -0.727781 5.461552 -7.499712 0.000400 0.136800 0.375700 3.048041 2.003453 -0.898735 21.147667 8.926305 -14.571267 -2.568045 -12.424006 34.666188 0.235842 -3.905653 -6.444246 -0.445300 -4.281400 11.869700 2.710140 1.677678 2.887474 2.082146 2.402651 -3.887749 2.220035 1.045478 -1.296806 -5.701815 5.077731 -15.158769 3.129264 7.633899 11.097676 2.913500 3.101800 8.976700 -0.694961 -2.574495 0.288290 -77.361828 6.370122 69.879387 93.309328 -59.024961 -55.548783 0.879342 1.480204 -3.437976 27.942594 9.361096 3.956700 -7.125000 0.000000 0.000000 0.140300 38.723400 -0.021700 2.281649 2.047100 -0.461565 66.986034 -4.011262 71.866563 -103.736296 57.225035 -65.808424 -1.779625 -0.699889 -8.165027 -33.178047 20.656991 -12.670100 7.125000 0.000000 0.000000 -1.587900 -5.028500 -1.443200 
